<svg width="170" height="55" viewBox="0 0 170 55" fill="none" xmlns="http://www.w3.org/2000/svg">
<g clip-path="url(#clip0)">
<path d="M9.0405 52.51C9.72419 52.51 10.3163 52.3006 10.823 51.888C11.3297 51.4691 11.6105 50.9518 11.6654 50.3297H13.4662C13.4296 50.9764 13.2098 51.5862 12.8069 52.1713C12.404 52.7564 11.8607 53.2183 11.1831 53.5633C10.5056 53.9082 9.79135 54.0868 9.03441 54.0868C7.51441 54.0868 6.31183 53.5756 5.41449 52.5532C4.51714 51.5307 4.07153 50.1326 4.07153 48.3588V48.0385C4.07153 46.9422 4.26686 45.969 4.66975 45.119C5.06654 44.2629 5.64035 43.6039 6.38508 43.1358C7.12982 42.6615 8.00886 42.4275 9.0283 42.4275C10.2797 42.4275 11.3174 42.8032 12.1476 43.5608C12.9778 44.3184 13.4174 45.2977 13.4723 46.5049H11.6715C11.6165 45.7781 11.3419 45.1806 10.8535 44.7125C10.359 44.2444 9.75472 44.0104 9.03441 44.0104C8.06381 44.0104 7.31297 44.3615 6.78188 45.0636C6.2508 45.7658 5.98221 46.782 5.98221 48.1124V48.4758C5.98221 49.7692 6.24469 50.767 6.77577 51.4691C7.30075 52.159 8.05769 52.51 9.0405 52.51Z" fill="#F48120"/>
<path d="M22.5006 53.8711C22.3907 53.6494 22.2991 53.2552 22.232 52.6885C21.3468 53.6186 20.2908 54.0805 19.0577 54.0805C17.9589 54.0805 17.0554 53.7664 16.3534 53.1381C15.6514 52.5099 15.2974 51.7154 15.2974 50.7546C15.2974 49.5843 15.7369 48.6728 16.622 48.026C17.5072 47.3793 18.7464 47.0529 20.3457 47.0529H22.2014V46.1721C22.2014 45.5008 22 44.9649 21.6032 44.5646C21.2064 44.1643 20.6204 43.9672 19.839 43.9672C19.1614 43.9672 18.5876 44.1396 18.1298 44.4845C17.672 44.8294 17.44 45.2483 17.44 45.741H15.5232C15.5232 45.1805 15.7186 44.6385 16.1153 44.115C16.5121 43.5914 17.0432 43.1788 17.7208 42.8708C18.3984 42.5629 19.1431 42.415 19.9489 42.415C21.2308 42.415 22.2381 42.7415 22.9645 43.3882C23.6909 44.0349 24.0694 44.928 24.0999 46.0674V51.2411C24.0999 52.2759 24.2281 53.095 24.4906 53.7048V53.8711H22.5006ZM19.3324 52.4052C19.9306 52.4052 20.4983 52.2512 21.0294 51.9371C21.5666 51.623 21.9512 51.2227 22.1953 50.7238V48.4141H20.6998C18.3618 48.4141 17.1958 49.1039 17.1958 50.4836C17.1958 51.0871 17.3912 51.5553 17.7941 51.9002C18.1969 52.2328 18.7097 52.4052 19.3324 52.4052Z" fill="#F48120"/>
<path d="M30.8332 46.7266L33.3055 42.6184H35.5336L31.8832 48.1801L35.6435 53.8712H33.4398L30.8637 49.6583L28.2877 53.8712H26.0718L29.8321 48.1801L26.1878 42.6184H28.3915L30.8332 46.7266Z" fill="#F48120"/>
<path d="M44.4339 53.8711C44.324 53.6494 44.2325 53.2552 44.1653 52.6885C43.2802 53.6186 42.2241 54.0805 40.991 54.0805C39.8922 54.0805 38.9949 53.7664 38.2868 53.1381C37.5848 52.5099 37.2307 51.7154 37.2307 50.7546C37.2307 49.5843 37.6702 48.6728 38.5554 48.026C39.4405 47.3793 40.6797 47.0529 42.2791 47.0529H44.1348V46.1721C44.1348 45.5008 43.9394 44.9649 43.5366 44.5646C43.1398 44.1643 42.5537 43.9672 41.7724 43.9672C41.0948 43.9672 40.521 44.1396 40.0632 44.4845C39.6053 44.8294 39.3734 45.2483 39.3734 45.741H37.4566C37.4566 45.1805 37.6519 44.6385 38.0487 44.115C38.4455 43.5914 38.9766 43.1788 39.6542 42.8708C40.3317 42.5629 41.0765 42.415 41.8823 42.415C43.1642 42.415 44.1714 42.7415 44.8978 43.3882C45.6243 44.0349 46.0027 44.928 46.0333 46.0674V51.2411C46.0333 52.2759 46.1676 53.095 46.4239 53.7048V53.8711H44.4339ZM41.2718 52.4052C41.8701 52.4052 42.4378 52.2512 42.9689 51.9371C43.506 51.623 43.8906 51.2227 44.1348 50.7238V48.4141H42.6392C40.3012 48.4141 39.1353 49.1039 39.1353 50.4836C39.1353 51.0871 39.3306 51.5553 39.7335 51.9002C40.1364 52.2328 40.6492 52.4052 41.2718 52.4052Z" fill="#F48120"/>
<path d="M58.1687 42.6182V53.8649H56.2519V44.2073H52.4611L52.2352 48.4201C52.1131 50.3541 51.7896 51.7338 51.2707 52.5653C50.7518 53.3968 49.9278 53.8279 48.8046 53.8649H48.0415V52.1711L48.5848 52.128C49.2013 52.0602 49.6469 51.6968 49.9155 51.044C50.1841 50.3911 50.3551 49.1839 50.4283 47.4285L50.6359 42.6121H58.1687V42.6182Z" fill="#F48120"/>
<path d="M68.4424 42.6184H70.347V53.8712H68.4424V45.6672L63.3025 53.8712H61.3979V42.6184H63.3025V50.8347L68.4424 42.6184Z" fill="#F48120"/>
<path d="M82.5191 53.8712H80.6145V49.0671H75.493V53.8712H73.5762V42.6184H75.493V47.4965H80.6145V42.6184H82.5191V53.8712Z" fill="#F48120"/>
<path d="M70.2568 32V11.847H83.5483V32H87.8638V7.83361H65.9414V32H70.2568ZM91.775 24.3185C91.775 28.634 94.8389 32.1295 99.9743 32.1295C104.333 32.1295 107.181 30.317 109.555 28.4182L110.245 32H113.697V17.5433C113.697 10.8113 109.382 7.70414 103.427 7.70414C99.1975 7.70414 96.824 8.69669 93.8895 10.3797V14.6088H97.3419L97.6008 12.8827C99.327 11.9764 100.794 11.7175 103.427 11.7175C106.577 11.7175 109.382 13.4437 109.382 16.7234V18.2338C107.008 17.0686 104.247 16.5076 99.9743 16.5076C94.8389 16.5076 91.775 20.0031 91.775 24.3185ZM95.9609 24.3185C95.9609 22.3334 97.1261 20.3483 100.406 20.3483C103.815 20.3483 107.095 20.9525 109.382 22.0745V24.1891C107.052 26.4331 104.247 28.2887 100.837 28.2887C97.5576 28.2887 95.9609 26.3036 95.9609 24.3185ZM129.768 7.70414C127.524 7.70414 124.287 8.86931 122 10.4229L121.482 7.83361H118.03V41.3645H122.345V30.4896C124.503 31.5685 126.79 32.1295 128.473 32.1295C135.723 32.1295 140.815 26.6489 140.815 19.9168C140.815 13.1847 135.723 7.70414 129.768 7.70414ZM128.905 12.0196C133.307 12.0196 136.5 15.6014 136.5 19.9168C136.5 24.3185 133.263 27.814 128.905 27.814C126.488 27.814 124.503 27.2099 122.345 25.8289V14.3931C124.503 12.9258 126.531 12.0627 128.905 12.0196ZM156.273 21.4272C156.963 21.5135 157.524 22.1177 157.999 23.1102L160.372 28.2456C161.538 30.7485 163.609 32.1295 165.982 32.1295L167.665 31.6979V27.814H165.982C165.292 27.814 164.645 27.2099 164.17 26.131L161.796 20.9957C161.494 20.3915 160.588 19.5284 160.2 19.399C160.588 19.1832 161.624 18.3201 161.883 17.6296L163.35 13.8321C163.782 12.7532 164.472 12.149 165.163 12.149H166.846V8.26515L165.163 7.83361C162.832 7.83361 160.674 9.21455 159.552 11.7175L158.085 15.5151C157.697 16.5508 156.963 17.3275 156.359 17.4139H148.98V7.83361H144.664V32H148.98V21.4272H156.273Z" fill="#231F20"/>
<path d="M27.4907 32V7.83361H19.6367L10.7469 27.9867H9.88379V7.83361H5.56836V32H13.1204L21.9238 11.847H23.1753V32H27.4907ZM38.932 32V11.847H47.5629V7.83361H25.9857V11.847H34.6166V32H38.932Z" fill="#F48120"/>
<path d="M4.48673 1.39819H0V5.92518H4.48673V1.39819Z" fill="#F48120"/>
<path d="M47.7851 33.4441H43.2983V37.9711H47.7851V33.4441Z" fill="#F48120"/>
</g>
<defs>
<clipPath id="clip0">
<rect width="170" height="55" fill="white"/>
</clipPath>
</defs>
</svg>
