<svg width="71" height="68" viewBox="0 0 71 68" fill="none" xmlns="http://www.w3.org/2000/svg">
<path fill-rule="evenodd" clip-rule="evenodd" d="M52.1599 0.0107232C56.895 0.0941984 61.9918 0.277173 65.6171 3.29232C69.1506 6.23111 70.2637 11.0714 70.8985 15.5954C71.4485 19.5159 69.6156 23.1146 68.9459 27.0168C68.1161 31.8512 69.876 37.5648 66.51 41.1638C63.0623 44.8501 57.2331 45.1303 52.1599 44.9644C47.2135 44.8027 41.8853 43.8036 38.4827 40.2473C35.2633 36.8825 36.657 31.4742 35.0789 27.1117C33.4232 22.5348 28.4089 19.0111 29.0575 14.1924C29.7246 9.23683 34.0565 5.44711 38.3498 2.81162C42.4431 0.298932 47.3437 -0.0741819 52.1599 0.0107232Z" fill="#FAF7F5"/>
<path d="M57.9926 18.0239C57.9926 13.5995 54.3932 10 49.9688 10C46.1251 10 42.9055 12.7173 42.1263 16.3315H30.9969C29.4843 16.3315 28.0622 16.9204 26.9923 17.99L1.66841 43.3079C0.598506 44.3776 0.00912477 45.8 0.00912477 47.313C0.00901149 48.826 0.598167 50.2484 1.66807 51.3183L16.6907 66.3409C17.7605 67.4106 19.1828 67.9999 20.6956 67.9999C22.2084 67.9999 23.6307 67.4107 24.7005 66.3409L33.4618 57.5796C33.9042 57.1373 33.9042 56.42 33.4618 55.9775C33.0194 55.5353 32.3023 55.5353 31.8597 55.9775L23.0984 64.7389C21.7734 66.0639 19.6175 66.0639 18.2925 64.7389L3.26992 49.7164C2.62798 49.0744 2.27444 48.221 2.27456 47.3131C2.27456 46.4053 2.6281 45.552 3.27015 44.9101L28.5942 19.5922C29.236 18.9505 30.0893 18.5971 30.9969 18.5971H41.9675C42.1027 20.5241 42.9156 22.318 44.295 23.6974C44.7374 24.1398 45.4546 24.1398 45.8969 23.6975C46.3394 23.2551 46.3394 22.538 45.8971 22.0955C44.9458 21.1441 44.3684 19.9184 44.2387 18.597H46.0203C47.8941 18.597 49.4186 20.1214 49.4186 21.9953V37.0113C49.4186 37.919 49.0652 38.7724 48.4233 39.4143L39.0687 48.7688C38.6264 49.2112 38.6264 49.9284 39.0687 50.3709C39.5112 50.8131 40.2282 50.8131 40.6708 50.3709L50.0253 41.0163C51.095 39.9465 51.6843 38.5242 51.6843 37.0114V25.8627C55.3371 25.0739 57.9926 21.8506 57.9926 18.0239ZM51.6842 23.5234V21.9953C51.6842 18.8722 49.1434 16.3314 46.0203 16.3314H44.4648C45.1894 13.9797 47.3826 12.2655 49.9688 12.2655C53.1439 12.2655 55.727 14.8487 55.727 18.0239C55.727 20.5988 54.0528 22.793 51.6842 23.5234Z" fill="#F48120"/>
<path d="M15.6301 47.2517C16.0724 46.8093 16.0724 46.0921 15.6301 45.6496C15.1876 45.2074 14.4706 45.2074 14.028 45.6496L11.3011 48.3765C10.8587 48.8189 10.8587 49.5361 11.3011 49.9786L18.0293 56.7069C18.2505 56.928 18.5404 57.0387 18.8303 57.0387C19.1201 57.0387 19.41 56.928 19.6313 56.7069C20.0736 56.2646 20.0736 55.5473 19.6313 55.1049L17.0043 52.478L18.7137 50.7686C19.1561 50.3263 19.1561 49.609 18.7137 49.1665C18.2712 48.7243 17.5542 48.7243 17.1116 49.1665L15.4023 50.8759L13.7038 49.1774L15.6301 47.2517Z" fill="#F48120"/>
<path d="M29.0013 46.8689C29.594 46.8689 30.0925 46.4081 30.1307 45.8083C30.1706 45.1839 29.6967 44.6455 29.0724 44.6058L25.3275 44.367C25.6423 43.8259 25.8208 43.2136 25.8407 42.5769C25.8718 41.5749 25.5099 40.644 24.8215 39.9555C23.4157 38.5497 21.0839 38.5939 19.6232 40.0544L17.8353 41.8424C17.8349 41.8427 17.8346 41.8432 17.8342 41.8435C17.8339 41.8438 17.8334 41.8442 17.8331 41.8445C17.3908 42.2869 17.3908 43.0041 17.8331 43.4466L24.5614 50.1748C24.7827 50.3959 25.0725 50.5066 25.3624 50.5066C25.6523 50.5066 25.9422 50.3959 26.1634 50.1748C26.6057 49.7325 26.6057 49.0152 26.1634 48.5727L24.1526 46.5621L28.9279 46.8666C28.9527 46.8682 28.9772 46.8689 29.0013 46.8689ZM21.2254 41.6564C21.7927 41.0891 22.7058 41.0438 23.2195 41.5575C23.4612 41.7991 23.5878 42.1359 23.5763 42.5061C23.5643 42.893 23.3981 43.274 23.1205 43.5515C22.8934 43.7786 22.5022 44.1732 22.1449 44.534C21.792 44.1847 21.409 43.8049 21.1905 43.5865C21.0036 43.3997 20.6087 43.0069 20.2408 42.6409L21.2254 41.6564Z" fill="#F48120"/>
<path d="M40.0336 36.3048L42.8686 33.4698C43.311 33.0275 43.311 32.3102 42.8686 31.8677C42.4262 31.4255 41.7091 31.4255 41.2665 31.8677L39.2325 33.9017L37.4704 32.1396L39.2953 30.3146C39.7376 29.8722 39.7376 29.155 39.2953 28.7125C38.8528 28.2703 38.1358 28.2703 37.6932 28.7125L35.8683 30.5375L34.106 28.7753L36.1402 26.7413C36.5825 26.2989 36.5825 25.5816 36.1402 25.1392C35.6977 24.6969 34.9807 24.6969 34.5381 25.1392L31.7031 27.9742C31.2608 28.4165 31.2608 29.1338 31.7031 29.5762L35.0668 32.9399L35.0673 32.9405C35.0673 32.9405 35.0677 32.9408 35.0679 32.941L38.4314 36.3047C38.6439 36.5171 38.932 36.6365 39.2324 36.6365C39.5328 36.6365 39.8211 36.5172 40.0336 36.3048Z" fill="#F48120"/>
<path d="M32.663 43.2063C32.9634 43.2063 33.2515 43.0869 33.464 42.8745L36.299 40.0395C36.7413 39.5972 36.7413 38.8799 36.299 38.4374C35.8565 37.9952 35.1395 37.9952 34.6969 38.4374L32.6629 40.4714L30.9008 38.7093L32.7259 36.8843C33.1682 36.4419 33.1682 35.7247 32.7259 35.2822C32.2835 34.8402 31.5665 34.84 31.1238 35.2822L29.2988 37.1072L27.5366 35.3451L29.5708 33.3111C30.0131 32.8687 30.0131 32.1515 29.5708 31.709C29.1283 31.2668 28.4113 31.2668 27.9687 31.709L25.1337 34.544C24.6914 34.9863 24.6914 35.7036 25.1337 36.1461L31.8619 42.8744C32.0744 43.0869 32.3625 43.2063 32.663 43.2063Z" fill="#F48120"/>
<path d="M36.2645 52.0416C35.9665 52.0416 35.6743 52.1628 35.4636 52.3735C35.253 52.5842 35.1317 52.8764 35.1317 53.1744C35.1317 53.4723 35.2529 53.7646 35.4636 53.9753C35.6743 54.1859 35.9665 54.3072 36.2645 54.3072C36.5624 54.3072 36.8547 54.186 37.0654 53.9753C37.276 53.7646 37.3973 53.4723 37.3973 53.1744C37.3973 52.8764 37.2761 52.5842 37.0654 52.3735C36.8547 52.1628 36.5624 52.0416 36.2645 52.0416Z" fill="#F48120"/>
</svg>
