<svg width="67" height="67" viewBox="0 0 67 67" fill="none" xmlns="http://www.w3.org/2000/svg">
<path fill-rule="evenodd" clip-rule="evenodd" d="M46.4249 0.102614C51.1572 -0.373757 56.1421 0.801225 59.8495 3.77954C63.4713 6.68909 65.3446 11.284 66.0566 15.8738C66.6957 19.9939 64.8534 23.8519 63.5791 27.8219C62.2991 31.8099 61.589 36.0751 58.623 39.0334C55.3454 42.3025 51.0406 44.5679 46.4249 44.9319C41.5827 45.3136 36.5423 44.0999 32.7438 41.0738C29.0305 38.1155 27.6121 33.351 26.1998 28.8193C24.805 24.344 22.9979 19.5632 24.6754 15.1859C26.3253 10.8807 31.0413 8.92601 34.8308 6.29804C38.5217 3.73838 41.9553 0.552539 46.4249 0.102614Z" fill="#FAF7F5"/>
<g clip-path="url(#clip0)">
<path d="M46.6458 52.6079C47.2417 51.5759 47.585 50.3756 47.585 49.0946V46.1816C47.585 44.7942 47.1824 43.5016 46.492 42.415C49.9725 38.761 51.8791 34.1695 51.8791 29.3907C51.8791 23.9089 49.4237 18.7664 44.9653 14.9103C40.5589 11.0989 34.7115 9 28.5004 9C24.5441 9 20.6332 9.87827 17.1905 11.5399C16.6349 11.808 16.3981 12.4836 16.6617 13.0489C16.9252 13.6142 17.5891 13.855 18.1445 13.587C21.291 12.0683 24.872 11.2656 28.5004 11.2656C40.1638 11.2656 49.6526 19.3963 49.6526 29.3905C49.6526 33.5284 48.0046 37.5215 44.9929 40.7329C43.8254 39.7888 42.3501 39.2228 40.7464 39.2228C36.9755 39.2228 33.9077 42.3444 33.9077 46.1815V46.9161C32.1507 47.3135 30.3353 47.5154 28.5004 47.5154C24.7827 47.5154 21.1267 46.6764 17.9273 45.0891C17.7561 45.0042 17.5667 44.9653 17.3759 44.9763L17.3206 44.9802C17.2445 44.9847 17.1692 44.997 17.0956 45.0171L15.4281 45.4723C12.9632 46.1453 10.4984 46.8182 8.03331 47.4903C8.02853 47.4916 8.02374 47.4929 8.01906 47.4943C7.75566 47.5695 7.57264 47.4224 7.50595 47.3555C7.42502 47.2744 7.29955 47.0994 7.36735 46.8403C8.12126 43.9773 8.87607 41.1143 9.63109 38.2515C9.70824 37.9589 9.66705 37.647 9.51664 37.3856C8.07773 34.8847 7.34809 32.1946 7.34809 29.3905C7.34809 25.8808 8.52371 22.4745 10.7478 19.5402C11.1232 19.0447 11.033 18.3334 10.5461 17.9513C10.0591 17.5694 9.36034 17.6611 8.98461 18.1565C6.45736 21.4909 5.12154 25.3755 5.12154 29.3904C5.12154 32.4466 5.875 35.3788 7.36223 38.1137C6.64662 40.8271 5.93122 43.5405 5.21639 46.2555C4.95867 47.2399 5.23031 48.2544 5.94314 48.9693C6.64651 49.6747 7.66983 49.9456 8.61623 49.6771C11.0795 49.0056 13.5423 48.3331 16.0053 47.6607L17.3163 47.3027C20.729 48.9251 24.5865 49.7811 28.5004 49.7811C30.3314 49.7811 32.1459 49.5967 33.9111 49.2324C33.9348 50.4615 34.2725 51.6131 34.8469 52.6078C33.4364 53.5098 32.2354 54.7239 31.3369 56.1662C30.2097 57.9756 29.6137 60.063 29.6137 62.2027V65.8673C29.6137 66.493 30.1123 67.0001 30.727 67.0001H50.7659C51.3806 67.0001 51.8792 66.493 51.8792 65.8673V62.2027C51.8792 60.0661 51.2848 57.9811 50.1605 56.1733C49.2615 54.728 48.0587 53.5115 46.6458 52.6079ZM36.1342 46.1815C36.1342 43.5937 38.2032 41.4884 40.7464 41.4884C43.2896 41.4884 45.3586 43.5937 45.3586 46.1815V49.0945C45.3586 51.6822 43.2896 53.7875 40.7464 53.7875C38.2032 53.7875 36.1342 51.6823 36.1342 49.0945V46.1815ZM49.6526 64.7344H31.8403V62.2026C31.8403 58.9458 33.5315 55.9943 36.2901 54.3662C37.488 55.4161 39.045 56.0531 40.7464 56.0531C42.4477 56.0531 44.0046 55.4162 45.2025 54.3664C47.961 55.9945 49.6526 58.947 49.6526 62.2026V64.7344Z" fill="#F48120"/>
<path d="M15.8773 27.6643C16.4921 27.6643 16.9906 27.1572 16.9906 26.5315C16.9906 25.5946 17.7397 24.8323 18.6605 24.8323C19.5813 24.8323 20.3304 25.5946 20.3304 26.5315C20.3304 26.9853 20.1525 27.4162 19.8295 27.7449C18.5364 29.0606 17.5472 30.186 17.5472 31.6821C17.5472 32.3077 18.0458 32.8149 18.6605 32.8149C19.2753 32.8149 19.7738 32.3077 19.7738 31.6821C19.7738 31.1763 20.185 30.587 21.4039 29.3469C22.1475 28.5903 22.557 27.5905 22.557 26.5314C22.557 24.3452 20.809 22.5666 18.6605 22.5666C16.512 22.5666 14.764 24.3452 14.764 26.5314C14.764 27.1572 15.2626 27.6643 15.8773 27.6643Z" fill="#F48120"/>
<path d="M18.6605 33.9479C18.0458 33.9479 17.5472 34.4551 17.5472 35.0807V35.0815C17.5472 35.7072 18.0458 36.214 18.6605 36.214C19.2753 36.214 19.7738 35.7064 19.7738 35.0807C19.7738 34.4551 19.2754 33.9479 18.6605 33.9479Z" fill="#F48120"/>
<path d="M26.3612 24.8325H41.1234C41.7382 24.8325 42.2367 24.3254 42.2367 23.6997C42.2367 23.0741 41.7382 22.5669 41.1234 22.5669H26.3612C25.7465 22.5669 25.2479 23.0741 25.2479 23.6997C25.2479 24.3254 25.7465 24.8325 26.3612 24.8325Z" fill="#F48120"/>
<path d="M26.3612 30.5234H41.1234C41.7382 30.5234 42.2367 30.0163 42.2367 29.3906C42.2367 28.765 41.7382 28.2578 41.1234 28.2578H26.3612C25.7465 28.2578 25.2479 28.765 25.2479 29.3906C25.2479 30.0163 25.7465 30.5234 26.3612 30.5234Z" fill="#F48120"/>
<path d="M26.3612 36.2144H41.1234C41.7382 36.2144 42.2367 35.7072 42.2367 35.0815C42.2367 34.4559 41.7382 33.9487 41.1234 33.9487H26.3612C25.7465 33.9487 25.2479 34.4559 25.2479 35.0815C25.2479 35.7072 25.7465 36.2144 26.3612 36.2144Z" fill="#F48120"/>
<path d="M13.4019 16.3695C14.0166 16.3695 14.5152 15.8623 14.5152 15.2367C14.5152 14.611 14.0166 14.1039 13.4019 14.1039H13.4011C12.7864 14.1039 12.2883 14.611 12.2883 15.2367C12.2883 15.8623 12.787 16.3695 13.4019 16.3695Z" fill="#F48120"/>
</g>
<defs>
<clipPath id="clip0">
<rect width="57" height="58" fill="white" transform="translate(0 9)"/>
</clipPath>
</defs>
</svg>
