<svg width="170" height="55" viewBox="0 0 170 55" fill="none" xmlns="http://www.w3.org/2000/svg">
<path d="M9.04053 52.51C9.72422 52.51 10.3164 52.3006 10.823 51.888C11.3297 51.4691 11.6105 50.9518 11.6654 50.3297H13.4662C13.4296 50.9764 13.2098 51.5862 12.8069 52.1713C12.4041 52.7564 11.8608 53.2183 11.1832 53.5633C10.5056 53.9082 9.79138 54.0868 9.03444 54.0868C7.51444 54.0868 6.31186 53.5756 5.41452 52.5532C4.51717 51.5307 4.07156 50.1326 4.07156 48.3588V48.0385C4.07156 46.9422 4.26689 45.969 4.66978 45.119C5.06657 44.2629 5.64038 43.6039 6.38511 43.1358C7.12985 42.6615 8.00889 42.4275 9.02833 42.4275C10.2797 42.4275 11.3175 42.8032 12.1477 43.5608C12.9779 44.3184 13.4174 45.2977 13.4723 46.5049H11.6715C11.6166 45.7781 11.3419 45.1806 10.8535 44.7125C10.3591 44.2444 9.75476 44.0104 9.03444 44.0104C8.06384 44.0104 7.313 44.3615 6.78191 45.0636C6.25083 45.7658 5.98224 46.782 5.98224 48.1124V48.4758C5.98224 49.7692 6.24472 50.767 6.7758 51.4691C7.30078 52.159 8.05772 52.51 9.04053 52.51Z" fill="#F48120"/>
<path d="M22.5007 53.8711C22.3908 53.6494 22.2992 53.2552 22.2321 52.6885C21.3469 53.6186 20.2909 54.0805 19.0578 54.0805C17.959 54.0805 17.0556 53.7664 16.3536 53.1381C15.6515 52.5099 15.2975 51.7154 15.2975 50.7546C15.2975 49.5843 15.737 48.6728 16.6221 48.026C17.5073 47.3793 18.7465 47.0529 20.3458 47.0529H22.2016V46.1721C22.2016 45.5008 22.0001 44.9649 21.6033 44.5646C21.2065 44.1643 20.6205 43.9672 19.8392 43.9672C19.1616 43.9672 18.5878 44.1396 18.1299 44.4845C17.6721 44.8294 17.4401 45.2483 17.4401 45.741H15.5233C15.5233 45.1805 15.7187 44.6385 16.1155 44.115C16.5123 43.5914 17.0433 43.1788 17.7209 42.8708C18.3985 42.5629 19.1432 42.415 19.949 42.415C21.231 42.415 22.2382 42.7415 22.9646 43.3882C23.691 44.0349 24.0695 44.928 24.1 46.0674V51.2411C24.1 52.2759 24.2282 53.095 24.4907 53.7048V53.8711H22.5007ZM19.3325 52.4052C19.9307 52.4052 20.4984 52.2512 21.0295 51.9371C21.5667 51.623 21.9513 51.2227 22.1955 50.7238V48.4141H20.6999C18.3619 48.4141 17.196 49.1039 17.196 50.4836C17.196 51.0871 17.3913 51.5553 17.7942 51.9002C18.1971 52.2328 18.7098 52.4052 19.3325 52.4052Z" fill="#F48120"/>
<path d="M30.8333 46.7266L33.3055 42.6184H35.5336L31.8832 48.1801L35.6435 53.8712H33.4398L30.8638 49.6583L28.2877 53.8712H26.0718L29.8321 48.1801L26.1878 42.6184H28.3915L30.8333 46.7266Z" fill="#F48120"/>
<path d="M44.4339 53.8711C44.324 53.6494 44.2324 53.2552 44.1653 52.6885C43.2801 53.6186 42.2241 54.0805 40.991 54.0805C39.8922 54.0805 38.9949 53.7664 38.2867 53.1381C37.5847 52.5099 37.2307 51.7154 37.2307 50.7546C37.2307 49.5843 37.6702 48.6728 38.5553 48.026C39.4405 47.3793 40.6797 47.0529 42.279 47.0529H44.1348V46.1721C44.1348 45.5008 43.9394 44.9649 43.5365 44.5646C43.1397 44.1643 42.5537 43.9672 41.7724 43.9672C41.0948 43.9672 40.521 44.1396 40.0631 44.4845C39.6053 44.8294 39.3733 45.2483 39.3733 45.741H37.4566C37.4566 45.1805 37.6519 44.6385 38.0487 44.115C38.4455 43.5914 38.9765 43.1788 39.6541 42.8708C40.3317 42.5629 41.0765 42.415 41.8822 42.415C43.1642 42.415 44.1714 42.7415 44.8978 43.3882C45.6242 44.0349 46.0027 44.928 46.0332 46.0674V51.2411C46.0332 52.2759 46.1675 53.095 46.4239 53.7048V53.8711H44.4339ZM41.2718 52.4052C41.87 52.4052 42.4377 52.2512 42.9688 51.9371C43.506 51.623 43.8906 51.2227 44.1348 50.7238V48.4141H42.6392C40.3012 48.4141 39.1353 49.1039 39.1353 50.4836C39.1353 51.0871 39.3306 51.5553 39.7335 51.9002C40.1364 52.2328 40.6492 52.4052 41.2718 52.4052Z" fill="#F48120"/>
<path d="M58.1687 42.6182V53.8649H56.2519V44.2073H52.4611L52.2352 48.4201C52.1132 50.3541 51.7896 51.7338 51.2707 52.5653C50.7519 53.3968 49.9278 53.8279 48.8046 53.8649H48.0415V52.1711L48.5848 52.128C49.2014 52.0602 49.647 51.6968 49.9156 51.044C50.1842 50.3911 50.3551 49.1839 50.4284 47.4285L50.6359 42.6121H58.1687V42.6182Z" fill="#F48120"/>
<path d="M68.4423 42.6184H70.3469V53.8712H68.4423V45.6672L63.3024 53.8712H61.3979V42.6184H63.3024V50.8347L68.4423 42.6184Z" fill="#F48120"/>
<path d="M82.519 53.8712H80.6145V49.0671H75.4929V53.8712H73.5761V42.6184H75.4929V47.4965H80.6145V42.6184H82.519V53.8712Z" fill="#F48120"/>
<path d="M70.2567 32V11.847H83.5482V32H87.8637V7.83361H65.9413V32H70.2567ZM91.7748 24.3185C91.7748 28.634 94.8388 32.1295 99.9742 32.1295C104.333 32.1295 107.181 30.317 109.554 28.4182L110.245 32H113.697V17.5433C113.697 10.8113 109.382 7.70414 103.426 7.70414C99.1974 7.70414 96.8239 8.69669 93.8894 10.3797V14.6088H97.3417L97.6007 12.8827C99.3268 11.9764 100.794 11.7175 103.426 11.7175C106.577 11.7175 109.382 13.4437 109.382 16.7234V18.2338C107.008 17.0686 104.246 16.5076 99.9742 16.5076C94.8388 16.5076 91.7748 20.0031 91.7748 24.3185ZM95.9608 24.3185C95.9608 22.3334 97.126 20.3483 100.406 20.3483C103.815 20.3483 107.095 20.9525 109.382 22.0745V24.1891C107.051 26.4331 104.246 28.2887 100.837 28.2887C97.5575 28.2887 95.9608 26.3036 95.9608 24.3185ZM129.768 7.70414C127.524 7.70414 124.287 8.86931 122 10.4229L121.482 7.83361H118.03V41.3645H122.345V30.4896C124.503 31.5685 126.79 32.1295 128.473 32.1295C135.723 32.1295 140.815 26.6489 140.815 19.9168C140.815 13.1847 135.723 7.70414 129.768 7.70414ZM128.905 12.0196C133.306 12.0196 136.5 15.6014 136.5 19.9168C136.5 24.3185 133.263 27.814 128.905 27.814C126.488 27.814 124.503 27.2099 122.345 25.8289V14.3931C124.503 12.9258 126.531 12.0627 128.905 12.0196ZM156.273 21.4272C156.963 21.5135 157.524 22.1177 157.999 23.1102L160.372 28.2456C161.537 30.7485 163.609 32.1295 165.982 32.1295L167.665 31.6979V27.814H165.982C165.292 27.814 164.645 27.2099 164.17 26.131L161.796 20.9957C161.494 20.3915 160.588 19.5284 160.2 19.399C160.588 19.1832 161.624 18.3201 161.883 17.6296L163.35 13.8321C163.781 12.7532 164.472 12.149 165.162 12.149H166.845V8.26515L165.162 7.83361C162.832 7.83361 160.674 9.21455 159.552 11.7175L158.085 15.5151C157.697 16.5508 156.963 17.3275 156.359 17.4139H148.98V7.83361H144.664V32H148.98V21.4272H156.273Z" fill="white"/>
<path d="M27.4907 32V7.83361H19.6366L10.7468 27.9867H9.88375V7.83361H5.56833V32H13.1203L21.9238 11.847H23.1753V32H27.4907ZM38.932 32V11.847H47.5628V7.83361H25.9857V11.847H34.6165V32H38.932Z" fill="#F48120"/>
<path d="M4.48673 1.39819H0V5.92518H4.48673V1.39819Z" fill="#F48120"/>
<path d="M47.7852 33.4441H43.2984V37.9711H47.7852V33.4441Z" fill="#F48120"/>
</svg>
