<svg width="73" height="58" viewBox="0 0 73 58" fill="none" xmlns="http://www.w3.org/2000/svg">
<path fill-rule="evenodd" clip-rule="evenodd" d="M47.9891 4.02943C52.7607 3.72124 57.2969 5.87316 61.2057 8.62708C65.1613 11.414 68.3246 15.1345 70.1256 19.6256C72.0239 24.3593 73.8076 29.8963 71.5738 34.4813C69.3864 38.9712 63.3965 39.5527 59.1424 42.1694C55.3377 44.5098 52.4499 48.7543 47.9891 48.9886C43.4585 49.2264 39.8516 45.7041 35.9511 43.3871C31.5708 40.785 25.8391 39.3532 23.8636 34.657C21.8576 29.8884 23.6741 24.2994 25.9716 19.6642C28.0533 15.4643 32.1354 12.9718 35.9573 10.2578C39.7318 7.57749 43.3693 4.32781 47.9891 4.02943Z" fill="#FAF7F5"/>
<g clip-path="url(#clip0)">
<path d="M47.3136 23.1817H25.7073C26.7064 22.0332 27.3135 20.5351 27.3135 18.897C27.3135 15.292 24.3807 12.3593 20.7758 12.3593C17.1709 12.3593 14.2381 15.292 14.2381 18.897C14.2381 20.5351 14.8452 22.0332 15.8441 23.1817H10.6865C7.56981 23.1817 5.03418 25.7173 5.03418 28.834V35.5036C5.03418 36.128 5.54029 36.6341 6.16465 36.6341C6.789 36.6341 7.29511 36.128 7.29511 35.5036V28.834C7.29511 26.964 8.81649 25.4426 10.6865 25.4426H42.3395C44.2096 25.4426 45.7309 26.964 45.7309 28.834V34.9385H33.9741C30.8574 34.9385 28.3218 37.4742 28.3218 40.5908C28.3218 43.7075 30.8574 46.2432 33.9741 46.2432H45.7309V52.3477C45.7309 54.2177 44.2096 55.7391 42.3395 55.7391H10.6865C8.81649 55.7391 7.29511 54.2177 7.29511 52.3477V45.6691C7.29511 45.0448 6.789 44.5387 6.16465 44.5387C5.54029 44.5387 5.03418 45.0448 5.03418 45.6691V52.3477C5.03418 55.4644 7.56981 58 10.6865 58H47.3136C50.4303 58 52.9659 55.4644 52.9659 52.3477V28.834C52.9659 25.7173 50.4303 23.1817 47.3136 23.1817ZM20.7758 14.6203C23.1341 14.6203 25.0526 16.5388 25.0526 18.8971C25.0526 21.2554 23.1341 23.1739 20.7758 23.1739C18.4176 23.1739 16.499 21.2554 16.499 18.8971C16.499 16.5388 18.4175 14.6203 20.7758 14.6203ZM46.8583 25.4426H47.3136C49.1836 25.4426 50.705 26.964 50.705 28.834V34.9385H47.9919V28.834C47.9919 27.5626 47.5696 26.388 46.8583 25.4426ZM30.5827 40.5908C30.5827 38.7208 32.1041 37.1995 33.9741 37.1995H50.705V43.9822H33.9741C32.1041 43.9822 30.5827 42.4609 30.5827 40.5908ZM47.3136 55.7391H46.8583C47.5696 54.7937 47.9919 53.6192 47.9919 52.3477V46.2432H50.705V52.3477C50.705 54.2177 49.1836 55.7391 47.3136 55.7391Z" fill="#F48120"/>
<path d="M33.6848 39.4602C33.3863 39.4602 33.0947 39.5812 32.8844 39.7914C32.6742 40.0017 32.5543 40.2934 32.5543 40.5907C32.5543 40.888 32.6742 41.1796 32.8844 41.3899C33.0958 41.6002 33.3863 41.7211 33.6848 41.7211C33.9821 41.7211 34.2726 41.6002 34.484 41.3899C34.6943 41.1796 34.8153 40.888 34.8153 40.5907C34.8153 40.2934 34.6943 40.0017 34.484 39.7914C34.2738 39.5811 33.9821 39.4602 33.6848 39.4602Z" fill="#F48120"/>
<path d="M37.2243 15.562C40.8293 15.562 43.762 12.6292 43.762 9.02428C43.762 5.41945 40.8293 2.48657 37.2243 2.48657C33.6194 2.48657 30.6866 5.41934 30.6866 9.02428C30.6866 12.6292 33.6194 15.562 37.2243 15.562ZM37.2243 4.74762C39.5825 4.74762 41.5011 6.66613 41.5011 9.02439C41.5011 11.3827 39.5826 13.3012 37.2243 13.3012C34.8661 13.3012 32.9476 11.3827 32.9476 9.02439C32.9476 6.66613 34.8661 4.74762 37.2243 4.74762Z" fill="#F48120"/>
<path d="M26.1831 11.1442C26.8074 11.1442 27.3135 10.6381 27.3135 10.0138V1.13047C27.3135 0.506109 26.8074 0 26.1831 0C25.5587 0 25.0526 0.506109 25.0526 1.13047V10.0138C25.0526 10.6381 25.5587 11.1442 26.1831 11.1442Z" fill="#F48120"/>
<path d="M20.7568 7.23498C21.3812 7.23498 21.8873 6.72887 21.8873 6.10451V1.13047C21.8873 0.506109 21.3812 0 20.7568 0C20.1325 0 19.6263 0.506109 19.6263 1.13047V6.10451C19.6263 6.72887 20.1325 7.23498 20.7568 7.23498Z" fill="#F48120"/>
<path d="M6.16465 41.7211C6.46196 41.7211 6.75362 41.6002 6.96389 41.3899C7.17415 41.1796 7.29511 40.888 7.29511 40.5907C7.29511 40.2934 7.17415 40.0017 6.96389 39.7914C6.75362 39.5812 6.46309 39.4602 6.16465 39.4602C5.86733 39.4602 5.57567 39.5812 5.36541 39.7914C5.15514 40.0017 5.03418 40.2934 5.03418 40.5907C5.03418 40.888 5.15514 41.1796 5.36541 41.3899C5.57567 41.6002 5.86722 41.7211 6.16465 41.7211Z" fill="#F48120"/>
</g>
<defs>
<clipPath id="clip0">
<rect width="58" height="58" fill="white"/>
</clipPath>
</defs>
</svg>
