<svg xmlns="http://www.w3.org/2000/svg" version="1.1" xmlns:xlink="http://www.w3.org/1999/xlink" xmlns:svgjs="http://svgjs.com/svgjs" width="1000" height="1000"><rect width="1000" height="1000" rx="250" ry="250" fill="#ffffff"></rect><g transform="matrix(17.391304347826086,0,0,17.391304347826086,100,169.56521739130437)"><svg xmlns="http://www.w3.org/2000/svg" version="1.1" xmlns:xlink="http://www.w3.org/1999/xlink" xmlns:svgjs="http://svgjs.com/svgjs" width="46" height="38"><svg width="46" height="38" viewBox="0 0 46 38" fill="none" xmlns="http://www.w3.org/2000/svg">
<rect width="46" height="38" fill="white"></rect>
<path d="M24.0801 32V7.83361H16.226L7.33623 27.9867H6.47314V7.83361H2.15771V32H9.70971L18.5132 11.847H19.7647V32H24.0801ZM35.5214 32V11.847H44.1522V7.83361H22.5751V11.847H31.2059V32H35.5214Z" fill="#F48120"></path>
<path d="M24.0801 32V7.83361H16.226L7.33623 27.9867H6.47314V7.83361H2.15771V32H9.70971L18.5132 11.847H19.7647V32H24.0801ZM35.5214 32V11.847H44.1522V7.83361H22.5751V11.847H31.2059V32H35.5214Z" fill="white" fill-opacity="0.2"></path>
</svg></svg></g></svg>